{
  "accessors": [
    {
      "bufferView": 2,
      "componentType": 5126,
      "count": 16510,
      "max": [
        8.621116638183594,
        7.4476470947265625,
        5.736705780029297
      ],
      "min": [
        -8.621121406555176,
        -9.332749366760254,
        -6.122439861297607
      ],
      "type": "VEC3"
    },
    {
      "bufferView": 2,
      "byteOffset": 198120,
      "componentType": 5126,
      "count": 16510,
      "max": [
        0.9999387860298157,
        0.999997615814209,
        0.9999625086784363
      ],
      "min": [
        -0.9999387860298157,
        -0.9999953508377075,
        -0.9999931454658508
      ],
      "type": "VEC3"
    },
    {
      "bufferView": 3,
      "componentType": 5126,
      "count": 16510,
      "max": [
        0.9998986124992371,
        0.9385281205177307,
        0.9996761679649353,
        1.0
      ],
      "min": [
        -0.999999463558197,
        -0.9999997019767761,
        -0.9999983310699463,
        -1.0
      ],
      "type": "VEC4"
    },
    {
      "bufferView": 1,
      "componentType": 5126,
      "count": 16510,
      "max": [
        0.9927510023117065,
        0.9911720156669617
      ],
      "min": [
        0.004610999953001738,
        0.008046000264585018
      ],
      "type": "VEC2"
    },
    {
      "bufferView": 0,
      "componentType": 5125,
      "count": 94488,
      "type": "SCALAR"
    },
    {
      "bufferView": 2,
      "byteOffset": 396240,
      "componentType": 5126,
      "count": 27904,
      "max": [
        9.99776840209961,
        9.42801570892334,
        6.194237232208252
      ],
      "min": [
        -9.997775077819824,
        -9.387192726135254,
        -6.193727016448975
      ],
      "type": "VEC3"
    },
    {
      "bufferView": 2,
      "byteOffset": 731088,
      "componentType": 5126,
      "count": 27904,
      "max": [
        0.9999813437461853,
        0.9995218515396118,
        0.9992604851722717
      ],
      "min": [
        -0.9999813437461853,
        -0.9999672174453735,
        -0.9993370175361633
      ],
      "type": "VEC3"
    },
    {
      "bufferView": 3,
      "byteOffset": 264160,
      "componentType": 5126,
      "count": 27904,
      "max": [
        0.9995779395103455,
        0.9998807311058044,
        0.9999207854270935,
        1.0
      ],
      "min": [
        -0.9999497532844543,
        -0.9999710321426392,
        -0.9999591112136841,
        -1.0
      ],
      "type": "VEC4"
    },
    {
      "bufferView": 1,
      "byteOffset": 132080,
      "componentType": 5126,
      "count": 27904,
      "max": [
        0.9989640116691589,
        0.999875009059906
      ],
      "min": [
        0.0,
        0.0
      ],
      "type": "VEC2"
    },
    {
      "bufferView": 0,
      "byteOffset": 377952,
      "componentType": 5125,
      "count": 157680,
      "type": "SCALAR"
    }
  ],
  "asset": {
    "extras": {
      "author": "Carissa (https://sketchfab.com/cclarke468)",
      "license": "CC-BY-4.0 (http://creativecommons.org/licenses/by/4.0/)",
      "source": "https://sketchfab.com/3d-models/spiderman-b5c87f4ac60b4f5184805edebdd981f4",
      "title": "Spiderman"
    },
    "generator": "Sketchfab-12.91.0",
    "version": "2.0"
  },
  "bufferViews": [
    {
      "buffer": 0,
      "byteLength": 1008672,
      "name": "floatBufferViews",
      "target": 34963
    },
    {
      "buffer": 0,
      "byteLength": 355312,
      "byteOffset": 1008672,
      "byteStride": 8,
      "name": "floatBufferViews",
      "target": 34962
    },
    {
      "buffer": 0,
      "byteLength": 1065936,
      "byteOffset": 1363984,
      "byteStride": 12,
      "name": "floatBufferViews",
      "target": 34962
    },
    {
      "buffer": 0,
      "byteLength": 710624,
      "byteOffset": 2429920,
      "byteStride": 16,
      "name": "floatBufferViews",
      "target": 34962
    }
  ],
  "buffers": [
    {
      "byteLength": 3140544,
      "uri": "scene.bin"
    }
  ],
  "images": [
    {
      "uri": "textures/lambert2_baseColor.jpeg"
    },
    {
      "uri": "textures/lambert2_metallicRoughness.png"
    },
    {
      "uri": "textures/lambert2_emissive.jpeg"
    },
    {
      "uri": "textures/lambert2_normal.png"
    },
    {
      "uri": "textures/lambert1_baseColor.jpeg"
    },
    {
      "uri": "textures/lambert1_metallicRoughness.png"
    },
    {
      "uri": "textures/lambert1_normal.png"
    }
  ],
  "materials": [
    {
      "doubleSided": true,
      "emissiveFactor": [
        1.0,
        1.0,
        1.0
      ],
      "emissiveTexture": {
        "index": 2
      },
      "name": "lambert2",
      "normalTexture": {
        "index": 3
      },
      "occlusionTexture": {
        "index": 1
      },
      "pbrMetallicRoughness": {
        "baseColorTexture": {
          "index": 0
        },
        "metallicRoughnessTexture": {
          "index": 1
        }
      }
    },
    {
      "doubleSided": true,
      "name": "lambert1",
      "normalTexture": {
        "index": 6
      },
      "occlusionTexture": {
        "index": 5
      },
      "pbrMetallicRoughness": {
        "baseColorTexture": {
          "index": 4
        },
        "metallicRoughnessTexture": {
          "index": 5
        }
      }
    }
  ],
  "meshes": [
    {
      "name": "defaultMaterial",
      "primitives": [
        {
          "attributes": {
            "NORMAL": 1,
            "POSITION": 0,
            "TANGENT": 2,
            "TEXCOORD_0": 3
          },
          "indices": 4,
          "material": 0,
          "mode": 4
        }
      ]
    },
    {
      "name": "defaultMaterial",
      "primitives": [
        {
          "attributes": {
            "NORMAL": 6,
            "POSITION": 5,
            "TANGENT": 7,
            "TEXCOORD_0": 8
          },
          "indices": 9,
          "material": 1,
          "mode": 4
        }
      ]
    }
  ],
  "nodes": [
    {
      "children": [
        1
      ],
      "matrix": [
        1.0,
        0.0,
        0.0,
        0.0,
        0.0,
        2.220446049250313e-16,
        -1.0,
        0.0,
        0.0,
        1.0,
        2.220446049250313e-16,
        0.0,
        0.0,
        0.0,
        0.0,
        1.0
      ],
      "name": "Sketchfab_model"
    },
    {
      "children": [
        2
      ],
      "matrix": [
        1.0,
        0.0,
        0.0,
        0.0,
        0.0,
        -4.371139006309477e-08,
        0.999999999999999,
        0.0,
        0.0,
        -0.999999999999999,
        -4.371139006309477e-08,
        0.0,
        0.0,
        0.0,
        0.0,
        1.0
      ],
      "name": "Collada visual scene group"
    },
    {
      "children": [
        3,
        4
      ],
      "name": "spiderman_2"
    },
    {
      "mesh": 0,
      "name": "defaultMaterial"
    },
    {
      "mesh": 1,
      "name": "defaultMaterial"
    }
  ],
  "samplers": [
    {
      "magFilter": 9729,
      "minFilter": 9987,
      "wrapS": 10497,
      "wrapT": 10497
    }
  ],
  "scene": 0,
  "scenes": [
    {
      "name": "Sketchfab_Scene",
      "nodes": [
        0
      ]
    }
  ],
  "textures": [
    {
      "sampler": 0,
      "source": 0
    },
    {
      "sampler": 0,
      "source": 1
    },
    {
      "sampler": 0,
      "source": 2
    },
    {
      "sampler": 0,
      "source": 3
    },
    {
      "sampler": 0,
      "source": 4
    },
    {
      "sampler": 0,
      "source": 5
    },
    {
      "sampler": 0,
      "source": 6
    }
  ]
}
