{
  "accessors": [
    {
      "bufferView": 2,
      "componentType": 5126,
      "count": 1472,
      "max": [
        1.9512981176376343,
        2.8554506301879883,
        2.5017035007476807
      ],
      "min": [
        -1.9512981176376343,
        -0.09298253059387207,
        -2.467175245285034
      ],
      "type": "VEC3"
    },
    {
      "bufferView": 2,
      "byteOffset": 17664,
      "componentType": 5126,
      "count": 1472,
      "max": [
        0.9978704452514648,
        0.9929823875427246,
        0.9988271594047546
      ],
      "min": [
        -0.9978704452514648,
        -0.9999364614486694,
        -0.9950159788131714
      ],
      "type": "VEC3"
    },
    {
      "bufferView": 1,
      "componentType": 5126,
      "count": 1472,
      "max": [
        0.0,
        0.0
      ],
      "min": [
        0.0,
        0.0
      ],
      "type": "VEC2"
    },
    {
      "bufferView": 0,
      "componentType": 5125,
      "count": 2010,
      "type": "SCALAR"
    },
    {
      "bufferView": 2,
      "byteOffset": 35328,
      "componentType": 5126,
      "count": 130,
      "max": [
        0.630197286605835,
        2.258005380630493,
        0.7825213670730591
      ],
      "min": [
        -0.630197286605835,
        0.6371270418167114,
        -1.3176389932632446
      ],
      "type": "VEC3"
    },
    {
      "bufferView": 2,
      "byteOffset": 36888,
      "componentType": 5126,
      "count": 130,
      "max": [
        0.30763471126556396,
        0.9788729548454285,
        0.9999704360961914
      ],
      "min": [
        -0.30763471126556396,
        -0.9932255148887634,
        -0.9509517550468445
      ],
      "type": "VEC3"
    },
    {
      "bufferView": 1,
      "byteOffset": 11776,
      "componentType": 5126,
      "count": 130,
      "max": [
        0.0,
        0.0
      ],
      "min": [
        0.0,
        0.0
      ],
      "type": "VEC2"
    },
    {
      "bufferView": 0,
      "byteOffset": 8040,
      "componentType": 5125,
      "count": 198,
      "type": "SCALAR"
    },
    {
      "bufferView": 2,
      "byteOffset": 38448,
      "componentType": 5126,
      "count": 1592,
      "max": [
        1.5694029331207275,
        2.8554506301879883,
        3.5584261417388916
      ],
      "min": [
        -1.5694029331207275,
        -0.09298253059387207,
        -1.6925946474075317
      ],
      "type": "VEC3"
    },
    {
      "bufferView": 2,
      "byteOffset": 57552,
      "componentType": 5126,
      "count": 1592,
      "max": [
        0.9997238516807556,
        0.9970014691352844,
        0.9999340176582336
      ],
      "min": [
        -0.9997238516807556,
        -0.9994732141494751,
        -0.9937244653701782
      ],
      "type": "VEC3"
    },
    {
      "bufferView": 1,
      "byteOffset": 12816,
      "componentType": 5126,
      "count": 1592,
      "max": [
        0.0,
        0.0
      ],
      "min": [
        0.0,
        0.0
      ],
      "type": "VEC2"
    },
    {
      "bufferView": 0,
      "byteOffset": 8832,
      "componentType": 5125,
      "count": 2052,
      "type": "SCALAR"
    },
    {
      "bufferView": 2,
      "byteOffset": 76656,
      "componentType": 5126,
      "count": 704,
      "max": [
        1.7536108493804932,
        1.3048720359802246,
        0.562214732170105
      ],
      "min": [
        -1.7536108493804932,
        0.07428818941116333,
        -2.467175245285034
      ],
      "type": "VEC3"
    },
    {
      "bufferView": 2,
      "byteOffset": 85104,
      "componentType": 5126,
      "count": 704,
      "max": [
        0.9973849058151245,
        0.9988774061203003,
        0.9666117429733276
      ],
      "min": [
        -0.9973849058151245,
        -0.9958347082138062,
        -0.9943217039108276
      ],
      "type": "VEC3"
    },
    {
      "bufferView": 1,
      "byteOffset": 25552,
      "componentType": 5126,
      "count": 704,
      "max": [
        0.0,
        0.0
      ],
      "min": [
        0.0,
        0.0
      ],
      "type": "VEC2"
    },
    {
      "bufferView": 0,
      "byteOffset": 17040,
      "componentType": 5125,
      "count": 1056,
      "type": "SCALAR"
    },
    {
      "bufferView": 2,
      "byteOffset": 93552,
      "componentType": 5126,
      "count": 148,
      "max": [
        0.42849114537239075,
        2.418398141860962,
        0.5158931016921997
      ],
      "min": [
        -0.42849114537239075,
        1.6192114353179932,
        -0.28667205572128296
      ],
      "type": "VEC3"
    },
    {
      "bufferView": 2,
      "byteOffset": 95328,
      "componentType": 5126,
      "count": 148,
      "max": [
        0.9014626145362854,
        0.9305582046508789,
        0.9855965375900269
      ],
      "min": [
        -0.9014626145362854,
        -0.9677585959434509,
        -0.9547183513641357
      ],
      "type": "VEC3"
    },
    {
      "bufferView": 1,
      "byteOffset": 31184,
      "componentType": 5126,
      "count": 148,
      "max": [
        0.0,
        0.0
      ],
      "min": [
        0.0,
        0.0
      ],
      "type": "VEC2"
    },
    {
      "bufferView": 0,
      "byteOffset": 21264,
      "componentType": 5125,
      "count": 192,
      "type": "SCALAR"
    },
    {
      "bufferView": 2,
      "byteOffset": 97104,
      "componentType": 5126,
      "count": 18,
      "max": [
        0.10282940417528152,
        0.7128188014030457,
        0.7928206324577332
      ],
      "min": [
        -0.10282940417528152,
        0.6559367179870605,
        0.7255768179893494
      ],
      "type": "VEC3"
    },
    {
      "bufferView": 2,
      "byteOffset": 97320,
      "componentType": 5126,
      "count": 18,
      "max": [
        0.7129548192024231,
        0.7136520147323608,
        0.8600038290023804
      ],
      "min": [
        -0.7129547595977783,
        -0.37045344710350037,
        -0.15728923678398132
      ],
      "type": "VEC3"
    },
    {
      "bufferView": 1,
      "byteOffset": 32368,
      "componentType": 5126,
      "count": 18,
      "max": [
        0.0,
        0.0
      ],
      "min": [
        0.0,
        0.0
      ],
      "type": "VEC2"
    },
    {
      "bufferView": 0,
      "byteOffset": 22032,
      "componentType": 5125,
      "count": 18,
      "type": "SCALAR"
    }
  ],
  "asset": {
    "extras": {
      "author": "lary (https://sketchfab.com/larycim)",
      "license": "CC-BY-4.0 (http://creativecommons.org/licenses/by/4.0/)",
      "source": "https://sketchfab.com/3d-models/scorpion-a5e8fefd544241b997ee2301ce18a0e1",
      "title": "Scorpion"
    },
    "generator": "Sketchfab-12.67.0",
    "version": "2.0"
  },
  "bufferViews": [
    {
      "buffer": 0,
      "byteLength": 22104,
      "name": "floatBufferViews",
      "target": 34963
    },
    {
      "buffer": 0,
      "byteLength": 32512,
      "byteOffset": 22104,
      "byteStride": 8,
      "name": "floatBufferViews",
      "target": 34962
    },
    {
      "buffer": 0,
      "byteLength": 97536,
      "byteOffset": 54616,
      "byteStride": 12,
      "name": "floatBufferViews",
      "target": 34962
    }
  ],
  "buffers": [
    {
      "byteLength": 152152,
      "uri": "scene.bin"
    }
  ],
  "extensionsUsed": [
    "KHR_materials_clearcoat"
  ],
  "materials": [
    {
      "doubleSided": true,
      "name": "Material",
      "pbrMetallicRoughness": {
        "baseColorFactor": [
          0.0008185049297224,
          0.2563582028907378,
          0.17768038440807618,
          1.0
        ],
        "metallicFactor": 0.0,
        "roughnessFactor": 0.4
      }
    },
    {
      "doubleSided": true,
      "extensions": {
        "KHR_materials_clearcoat": {
          "clearcoatFactor": 1.0,
          "clearcoatRoughnessFactor": 0.04
        }
      },
      "name": "Material.001",
      "pbrMetallicRoughness": {
        "baseColorFactor": [
          0.0023003418447395956,
          0.0758955803843573,
          0.055951787074414026,
          1.0
        ],
        "metallicFactor": 0.1480564024390244,
        "roughnessFactor": 0.3309832317073171
      }
    },
    {
      "doubleSided": true,
      "name": "Material.003",
      "pbrMetallicRoughness": {
        "baseColorFactor": [
          0.002428215868390703,
          0.760524504675292,
          0.5271151257058133,
          1.0
        ],
        "metallicFactor": 0.0,
        "roughnessFactor": 0.658333
      }
    },
    {
      "doubleSided": true,
      "emissiveFactor": [
        0.0015222618534690196,
        0.47677698559102727,
        0.3304513650099325
      ],
      "name": "Material.004",
      "pbrMetallicRoughness": {
        "baseColorFactor": [
          0.4620769999999998,
          0.41788499999999995,
          0.18447500000000003,
          1.0
        ],
        "metallicFactor": 0.691667,
        "roughnessFactor": 0.841667
      }
    },
    {
      "alphaMode": "BLEND",
      "doubleSided": true,
      "emissiveFactor": [
        0.14957551582551754,
        1.0,
        1.0
      ],
      "name": "Material.005",
      "pbrMetallicRoughness": {
        "baseColorFactor": [
          0.002428215868390704,
          0.7605245046752922,
          0.5271151257058133,
          0.7395198170731707
        ],
        "metallicFactor": 0.0,
        "roughnessFactor": 0.6690167682926829
      }
    },
    {
      "doubleSided": true,
      "name": "Material.006",
      "pbrMetallicRoughness": {
        "baseColorFactor": [
          0.0,
          0.0,
          0.0,
          1.0
        ],
        "metallicFactor": 0.0,
        "roughnessFactor": 0.825
      }
    }
  ],
  "meshes": [
    {
      "name": "Object_0",
      "primitives": [
        {
          "attributes": {
            "NORMAL": 1,
            "POSITION": 0,
            "TEXCOORD_0": 2
          },
          "indices": 3,
          "material": 0,
          "mode": 4
        }
      ]
    },
    {
      "name": "Object_1",
      "primitives": [
        {
          "attributes": {
            "NORMAL": 5,
            "POSITION": 4,
            "TEXCOORD_0": 6
          },
          "indices": 7,
          "material": 1,
          "mode": 4
        }
      ]
    },
    {
      "name": "Object_2",
      "primitives": [
        {
          "attributes": {
            "NORMAL": 9,
            "POSITION": 8,
            "TEXCOORD_0": 10
          },
          "indices": 11,
          "material": 2,
          "mode": 4
        }
      ]
    },
    {
      "name": "Object_3",
      "primitives": [
        {
          "attributes": {
            "NORMAL": 13,
            "POSITION": 12,
            "TEXCOORD_0": 14
          },
          "indices": 15,
          "material": 3,
          "mode": 4
        }
      ]
    },
    {
      "name": "Object_4",
      "primitives": [
        {
          "attributes": {
            "NORMAL": 17,
            "POSITION": 16,
            "TEXCOORD_0": 18
          },
          "indices": 19,
          "material": 4,
          "mode": 4
        }
      ]
    },
    {
      "name": "Object_5",
      "primitives": [
        {
          "attributes": {
            "NORMAL": 21,
            "POSITION": 20,
            "TEXCOORD_0": 22
          },
          "indices": 23,
          "material": 5,
          "mode": 4
        }
      ]
    }
  ],
  "nodes": [
    {
      "children": [
        1
      ],
      "matrix": [
        1.0,
        0.0,
        0.0,
        0.0,
        0.0,
        2.220446049250313e-16,
        -1.0,
        0.0,
        0.0,
        1.0,
        2.220446049250313e-16,
        0.0,
        0.0,
        0.0,
        0.0,
        1.0
      ],
      "name": "Sketchfab_model"
    },
    {
      "children": [
        2
      ],
      "name": "root"
    },
    {
      "children": [
        3
      ],
      "matrix": [
        1.0,
        0.0,
        0.0,
        0.0,
        0.0,
        2.220446049250313e-16,
        1.0,
        0.0,
        0.0,
        -1.0,
        2.220446049250313e-16,
        0.0,
        0.0,
        0.0,
        0.0,
        1.0
      ],
      "name": "GLTF_SceneRootNode"
    },
    {
      "children": [
        4,
        5,
        6,
        7,
        8,
        9
      ],
      "matrix": [
        1.0,
        0.0,
        -0.0,
        0.0,
        -0.0,
        0.9978396758091707,
        -0.06569612911769704,
        0.0,
        0.0,
        0.06569612911769704,
        0.9978396758091707,
        0.0,
        0.0,
        0.018812252208590508,
        0.0,
        1.0
      ],
      "name": "Cube_0"
    },
    {
      "mesh": 0,
      "name": "Object_4"
    },
    {
      "mesh": 1,
      "name": "Object_5"
    },
    {
      "mesh": 2,
      "name": "Object_6"
    },
    {
      "mesh": 3,
      "name": "Object_7"
    },
    {
      "mesh": 4,
      "name": "Object_8"
    },
    {
      "mesh": 5,
      "name": "Object_9"
    }
  ],
  "scene": 0,
  "scenes": [
    {
      "name": "Sketchfab_Scene",
      "nodes": [
        0
      ]
    }
  ]
}
